<?xml version="1.0" encoding="UTF-8" standalone="no"?>
<!-- Created with Inkscape (http://www.inkscape.org/) -->

<svg
   xmlns:dc="http://purl.org/dc/elements/1.1/"
   xmlns:cc="http://creativecommons.org/ns#"
   xmlns:rdf="http://www.w3.org/1999/02/22-rdf-syntax-ns#"
   xmlns:svg="http://www.w3.org/2000/svg"
   xmlns="http://www.w3.org/2000/svg"
   xmlns:sodipodi="http://sodipodi.sourceforge.net/DTD/sodipodi-0.dtd"
   xmlns:inkscape="http://www.inkscape.org/namespaces/inkscape"
   width="0.75in"
   height="0.75in"
   viewBox="0 0 72 72"
   id="svg2"
   version="1.1"
   inkscape:version="0.91+devel+osxmenu r12922"
   inkscape:export-filename="/Users/takunoko/Documents/TuT/LecCan_Android/画像/アイコン/icon_ldpi.png"
   inkscape:export-xdpi="48"
   inkscape:export-ydpi="48"
   sodipodi:docname="icon_new.svg">
  <defs
     id="defs4">
    <clipPath
       clipPathUnits="userSpaceOnUse"
       id="clipPath4189">
      <rect
         style="fill:none;fill-opacity:1;stroke:#000000;stroke-width:0.51418442;stroke-miterlimit:4;stroke-dasharray:none;stroke-opacity:1"
         id="rect4191"
         width="71.985817"
         height="71.985817"
         x="52.538319"
         y="11.564204"
         ry="10.026596" />
    </clipPath>
  </defs>
  <sodipodi:namedview
     id="base"
     pagecolor="#ffffff"
     bordercolor="#666666"
     borderopacity="1.0"
     inkscape:pageopacity="0.0"
     inkscape:pageshadow="2"
     inkscape:zoom="8.0000001"
     inkscape:cx="29.156904"
     inkscape:cy="37.280216"
     inkscape:document-units="px"
     inkscape:current-layer="layer1"
     showgrid="true"
     fit-margin-top="0"
     fit-margin-left="0"
     fit-margin-right="0"
     fit-margin-bottom="0"
     units="in"
     inkscape:window-width="1440"
     inkscape:window-height="850"
     inkscape:window-x="1760"
     inkscape:window-y="1103"
     inkscape:window-maximized="0"
     inkscape:snap-global="false">
    <inkscape:grid
       type="xygrid"
       id="grid4514"
       originx="-197.46462"
       originy="-996.14197" />
  </sodipodi:namedview>
  <metadata
     id="metadata7">
    <rdf:RDF>
      <cc:Work
         rdf:about="">
        <dc:format>image/svg+xml</dc:format>
        <dc:type
           rdf:resource="http://purl.org/dc/dcmitype/StillImage" />
        <dc:title />
      </cc:Work>
    </rdf:RDF>
  </metadata>
  <g
     inkscape:label="Layer 1"
     inkscape:groupmode="layer"
     id="layer1"
     transform="translate(-52.245846,-11.602642)">
    <rect
       style="fill:#ffffff;fill-opacity:1;stroke:none;stroke-width:0.003;stroke-miterlimit:4;stroke-dasharray:none;stroke-opacity:1"
       id="rect4183"
       width="79"
       height="77"
       x="48.120846"
       y="8.9776421"
       ry="0"
       clip-path="url(#clipPath4189)" />
    <path
       style="fill:#000000;fill-opacity:1;stroke:#000000;stroke-width:0.86232567;stroke-miterlimit:4;stroke-dasharray:none;stroke-opacity:1"
       id="path4161"
       d="m 67.315465,18.516285 c 3.312436,-0.603586 6.64657,-1.070895 9.982905,-1.518831 2.245383,-0.29004 1.171835,-0.155766 3.220369,-0.405014 0,0 -3.171563,2.230361 -3.171563,2.230361 l 0,0 c -1.955733,0.186125 -0.927048,0.08092 -3.085556,0.320437 -3.47463,0.447776 -6.952954,0.954358 -10.353897,1.811074 0,0 3.407742,-2.438027 3.407742,-2.438027 z"
       inkscape:connector-curvature="0" />
    <path
       style="fill:#000000;fill-opacity:1;stroke:#000000;stroke-width:0.86232567;stroke-miterlimit:4;stroke-dasharray:none;stroke-opacity:1"
       id="path4163"
       d="m 74.630541,18.529657 c -0.271786,2.624622 -0.324491,5.269735 -0.369779,7.906734 -0.06148,1.852576 -0.06221,3.701665 0.0521,5.551538 0.06833,1.181399 0.06514,2.36466 0.06238,3.547446 0,0 -3.727181,1.771717 -3.727181,1.771717 l 0,0 c 0.02667,-1.179874 0.02504,-2.360461 -0.02417,-3.539815 -0.05192,-1.891754 0.01458,-3.777068 0.121066,-5.666834 0.106237,-2.587755 0.212986,-5.185042 0.08779,-7.773274 0,0 3.797785,-1.797513 3.797785,-1.797513 z"
       inkscape:connector-curvature="0" />
    <path
       style="fill:#000000;fill-opacity:1;stroke:#000000;stroke-width:0.86232567;stroke-miterlimit:4;stroke-dasharray:none;stroke-opacity:1"
       id="path4165"
       d="m 86.70803,24.960004 c -0.184046,2.007089 -0.230887,4.024902 -0.272059,6.039221 0.0083,1.188923 -0.04633,2.573909 0.88594,3.472032 0.125829,0.121219 0.279443,0.20981 0.419165,0.314716 0.922095,0.522287 2.039615,0.347196 3.036818,0.147692 0.16032,-0.04645 0.325636,-0.07825 0.480961,-0.139365 0.154254,-0.06068 0.591371,-0.299855 0.443753,-0.22445 -1.052309,0.537534 -2.074467,1.139005 -3.157827,1.610837 -0.180502,0.07861 0.293611,-0.264714 0.417796,-0.417484 0.354039,-0.435535 0.417165,-0.658935 0.650899,-1.167063 0.497014,-1.311682 0.592156,-2.717791 0.655409,-4.10531 0.01941,-0.559714 0.313989,-4.256898 0.310579,-4.816925 l 3.497879,-0.653258 0,-0.570393 c -0.02787,0.575682 -0.0476,3.718569 -0.08836,4.293579 -0.104002,1.424903 -0.182971,2.874941 -0.623516,4.243443 -0.177065,0.458925 -0.306225,0.864449 -0.573528,1.281973 -1.127836,1.761663 -3.405965,2.567352 -5.384164,3.061371 -1.106268,0.140523 -2.262739,0.246815 -3.214057,-0.449176 -0.152076,-0.133462 -0.319853,-0.250917 -0.456226,-0.400389 -0.947421,-1.038435 -0.934666,-2.462231 -0.896387,-3.780371 0.07497,-1.980695 0.14841,-3.965585 0.07774,-5.947253 l 3.789169,-1.793435 z"
       inkscape:connector-curvature="0"
       sodipodi:nodetypes="ccscccssscccccccsccscccc" />
    <path
       style="fill:#000000;fill-opacity:1;stroke:#000000;stroke-width:0.81335551;stroke-miterlimit:4;stroke-dasharray:none;stroke-opacity:1"
       id="path4167"
       d="m 97.907353,16.542597 c 3.450727,0.323954 6.920167,0.224314 10.373447,0.01112 1.74243,-0.111193 3.47655,-0.289097 5.20544,-0.528834 0,0 -3.08999,2.177597 -3.08999,2.177597 l 0,0 c -1.66144,0.162617 -3.3261,0.271843 -4.99358,0.35303 -3.56847,0.183073 -7.136718,0.198886 -10.708712,0.181469 0,0 3.213395,-2.194369 3.213395,-2.194369 z"
       inkscape:connector-curvature="0" />
    <path
       style="fill:#000000;fill-opacity:1;stroke:#000000;stroke-width:0.81335551;stroke-miterlimit:4;stroke-dasharray:none;stroke-opacity:1"
       id="path4169"
       d="m 104.76241,18.995874 c -0.26854,2.628344 -0.31586,5.275915 -0.32845,7.91643 0.009,1.747979 -0.10159,3.494944 -0.0772,5.242531 0.0366,1.203292 0.0845,2.404468 0.0943,3.608377 0,0 -3.4643,1.655037 -3.4643,1.655037 l 0,0 c -0.007,-1.206051 -0.036,-2.41204 -0.071,-3.617589 -0.0163,-1.768425 0.0936,-3.535417 0.16614,-5.301833 0.13809,-2.603552 0.2527,-5.21691 0.13085,-7.822901 0,0 3.5496,-1.680052 3.5496,-1.680052 z"
       inkscape:connector-curvature="0" />
    <path
       style="fill:#000000;fill-opacity:1;stroke:#000000;stroke-width:0.66015333;stroke-miterlimit:4;stroke-dasharray:none;stroke-opacity:1"
       id="path4171"
       d="m 80.605693,40.905189 c -1.108796,2.509969 -2.340482,4.972876 -3.745438,7.344799 -0.431571,0.7286 -0.887357,1.443861 -1.331036,2.165794 -1.538815,2.426122 -3.112492,4.860805 -5.012571,7.049887 -0.809392,0.9325 -1.014283,1.082072 -1.876633,1.878239 -0.666875,0.542885 -1.32483,1.103597 -2.055384,1.568294 0,0 -3.156825,0.724555 -3.156825,0.724555 l 0,0 c 0.856661,-0.385804 1.552323,-1.027363 2.311651,-1.55755 0.926099,-0.781771 1.177844,-0.952393 2.04562,-1.879979 2.016,-2.154953 3.676419,-4.596199 5.228923,-7.067254 1.742828,-2.95054 3.527829,-5.962163 4.46352,-9.252605 0,0 3.128173,-0.97418 3.128173,-0.97418 z"
       inkscape:connector-curvature="0" />
    <path
       style="fill:#000000;fill-opacity:1;stroke:#000000;stroke-width:0.76498663;stroke-miterlimit:4;stroke-dasharray:none;stroke-opacity:1"
       id="path4173"
       d="m 75.931958,54.11005 c -0.722949,3.572301 -1.187885,7.193174 -1.553101,10.815839 -0.287035,2.915672 -0.30116,5.842843 -0.359325,8.767983 -0.04574,0.989462 -0.05577,1.98677 -0.202425,2.968272 0,0 -3.533362,1.15429 -3.533362,1.15429 l 0,0 c 0.23288,-0.972169 0.264774,-1.9776 0.36167,-2.968563 0.217391,-2.968441 0.380438,-5.94095 0.697214,-8.901874 0.234766,-2.2021 0.507092,-4.400397 0.731932,-6.603455 0.0732,-0.717295 0.229573,-2.367269 0.265098,-3.170298 0.01286,-0.29066 0.0014,-0.581863 0.0022,-0.872792 0,0 3.590095,-1.189402 3.590095,-1.189402 z"
       inkscape:connector-curvature="0" />
    <path
       style="fill:#000000;fill-opacity:1;stroke:#000000;stroke-width:0.80509156;stroke-miterlimit:4;stroke-dasharray:none;stroke-opacity:1"
       id="path4175"
       d="m 85.955195,50.272769 c 3.513457,0.03002 7.017839,-0.913562 10.433745,-1.659116 2.9273,-0.644471 5.87988,-1.201244 8.78305,-1.950771 -5.2234,1.949506 -3.3214,1.578887 -2.45398,0.725956 0.12666,-0.124562 0.22254,-0.276982 0.33382,-0.415472 0,0 3.68893,-1.056535 3.68893,-1.056535 l 0,0 c -1.18549,1.785003 -2.12793,1.737488 -4.84469,2.631712 -2.80316,0.605295 -5.622473,1.1364 -8.426465,1.738391 -3.606335,0.789076 -7.234238,1.747397 -10.946245,1.792465 0,0 3.431835,-1.80663 3.431835,-1.80663 z"
       inkscape:connector-curvature="0" />
    <path
       style="fill:#000000;fill-opacity:1;stroke:#000000;stroke-width:0.78475332;stroke-miterlimit:4;stroke-dasharray:none;stroke-opacity:1"
       id="path4177"
       d="m 96.56005,41.253744 c -0.04891,0.35284 -0.120895,0.703522 -0.1468,1.058511 -0.150198,2.058656 -0.02291,4.152347 0.03362,6.210887 0.114695,4.175805 0.06059,1.407575 0.122841,5.774163 0.01675,4.401679 0.294489,8.797039 0.413968,13.19583 -0.05285,2.328765 -0.441717,4.636734 -0.742255,6.945386 -0.08548,0.636678 -0.16674,1.273501 -0.223109,1.913026 0,0 -3.679621,1.172381 -3.679621,1.172381 l 0,0 c 0.151647,-0.649821 0.27698,-1.304171 0.387804,-1.961332 0.389553,-2.294098 0.717339,-4.600743 0.821883,-6.924014 0.219465,-4.447164 0.232765,-8.899587 0.07874,-13.349435 -0.152977,-4.287943 -0.432703,-8.568459 -0.792342,-12.845444 0,0 3.72526,-1.18996 3.72526,-1.18996 z"
       inkscape:connector-curvature="0" />
    <path
       style="fill:#000000;fill-opacity:1;stroke:#000000;stroke-width:0.00319521;stroke-miterlimit:4;stroke-dasharray:none;stroke-opacity:1"
       id="path4179"
       d="m 96.821113,50.617684 c -1.582602,3.425582 -3.240673,6.838196 -5.212198,10.061042 -0.48575,0.794053 -1.013286,1.561777 -1.519927,2.342665 -1.536734,2.312086 -3.22528,4.517432 -4.977741,6.668528 0,0 -4.754223,1.321675 -4.754223,1.321675 l 0,0 c 1.903354,-2.12938 3.730251,-4.329615 5.325568,-6.703594 2.459849,-3.754522 4.770646,-7.670894 6.112994,-11.983031 0,0 5.025527,-1.707285 5.025527,-1.707285 z"
       inkscape:connector-curvature="0" />
    <path
       style="fill:#000000;fill-opacity:1;stroke:#000000;stroke-width:0.00319521;stroke-miterlimit:4;stroke-dasharray:none;stroke-opacity:1"
       id="path4181"
       d="m 98.017355,50.006422 c 1.224835,1.84577 2.385015,3.767865 3.539565,5.695609 1.47902,2.393187 2.96019,4.788205 4.51284,7.093423 0.55855,0.761468 1.09084,1.553627 1.61426,2.359468 0.35447,0.512339 0.67278,1.12472 1.08161,1.564221 0.29636,0.318614 3.59976,2.911668 3.62774,2.936616 l -4.61816,0.472153 0,0 c -0.33696,-0.234794 -1.62145,-1.081993 -2.09065,-1.533489 -0.0924,-0.08903 -0.15583,-0.224247 -0.2333,-0.336939 -0.28335,-0.412139 -0.56478,-0.826816 -0.84162,-1.247145 -0.5333,-0.780361 -1.04983,-1.576908 -1.52261,-2.429424 -1.42172,-2.439488 -2.85945,-4.859953 -4.40152,-7.161719 -1.214982,-1.87857 -2.353123,-3.870151 -3.743821,-5.517491 z"
       inkscape:connector-curvature="0"
       sodipodi:nodetypes="ccccsccccsccccc" />
  </g>
</svg>
